<svg class="marks" width="473" height="162" viewBox="0 0 473 162" version="1.1" xmlns="http://www.w3.org/2000/svg" xmlns:xlink="http://www.w3.org/1999/xlink"><rect width="473" height="162" style="fill: white;"></rect><g transform="translate(67,25)"><g class="mark-group role-frame root"><g transform="translate(0,0)"><path class="background" d="M0.5,0.5h400v100h-400Z" style="fill: none; stroke: #ddd;"></path><g><g class="mark-group role-axis"><g transform="translate(0.5,100.5)"><path class="background" d="M0,0h0v0h0Z" style="pointer-events: none; fill: none;"></path><g><g class="mark-rule role-axis-tick" style="pointer-events: none;"><line transform="translate(0,0)" x2="0" y2="5" style="fill: none; stroke: #888; stroke-width: 1; opacity: 1;"></line><line transform="translate(36,0)" x2="0" y2="5" style="fill: none; stroke: #888; stroke-width: 1; opacity: 1;"></line><line transform="translate(73,0)" x2="0" y2="5" style="fill: none; stroke: #888; stroke-width: 1; opacity: 1;"></line><line transform="translate(109,0)" x2="0" y2="5" style="fill: none; stroke: #888; stroke-width: 1; opacity: 1;"></line><line transform="translate(145,0)" x2="0" y2="5" style="fill: none; stroke: #888; stroke-width: 1; opacity: 1;"></line><line transform="translate(182,0)" x2="0" y2="5" style="fill: none; stroke: #888; stroke-width: 1; opacity: 1;"></line><line transform="translate(218,0)" x2="0" y2="5" style="fill: none; stroke: #888; stroke-width: 1; opacity: 1;"></line><line transform="translate(255,0)" x2="0" y2="5" style="fill: none; stroke: #888; stroke-width: 1; opacity: 1;"></line><line transform="translate(291,0)" x2="0" y2="5" style="fill: none; stroke: #888; stroke-width: 1; opacity: 1;"></line><line transform="translate(327,0)" x2="0" y2="5" style="fill: none; stroke: #888; stroke-width: 1; opacity: 1;"></line><line transform="translate(364,0)" x2="0" y2="5" style="fill: none; stroke: #888; stroke-width: 1; opacity: 1;"></line><line transform="translate(400,0)" x2="0" y2="5" style="fill: none; stroke: #888; stroke-width: 1; opacity: 1;"></line></g><g class="mark-text role-axis-label" style="pointer-events: none;"><text text-anchor="start" transform="translate(0,15)" style="font-family: sans-serif; font-size: 10px; fill: #000; opacity: 1;">-6</text><text text-anchor="middle" transform="translate(36.36363636363637,15)" style="font-family: sans-serif; font-size: 10px; fill: #000; opacity: 1;">-4</text><text text-anchor="middle" transform="translate(72.72727272727273,15)" style="font-family: sans-serif; font-size: 10px; fill: #000; opacity: 1;">-2</text><text text-anchor="middle" transform="translate(109.09090909090908,15)" style="font-family: sans-serif; font-size: 10px; fill: #000; opacity: 1;">0</text><text text-anchor="middle" transform="translate(145.45454545454547,15)" style="font-family: sans-serif; font-size: 10px; fill: #000; opacity: 1;">2</text><text text-anchor="middle" transform="translate(181.8181818181818,15)" style="font-family: sans-serif; font-size: 10px; fill: #000; opacity: 1;">4</text><text text-anchor="middle" transform="translate(218.18181818181816,15)" style="font-family: sans-serif; font-size: 10px; fill: #000; opacity: 1;">6</text><text text-anchor="middle" transform="translate(254.54545454545453,15)" style="font-family: sans-serif; font-size: 10px; fill: #000; opacity: 1;">8</text><text text-anchor="middle" transform="translate(290.90909090909093,15)" style="font-family: sans-serif; font-size: 10px; fill: #000; opacity: 1;">10</text><text text-anchor="middle" transform="translate(327.2727272727273,15)" style="font-family: sans-serif; font-size: 10px; fill: #000; opacity: 1;">12</text><text text-anchor="middle" transform="translate(363.6363636363636,15)" style="font-family: sans-serif; font-size: 10px; fill: #000; opacity: 1;">14</text><text text-anchor="end" transform="translate(400,15)" style="font-family: sans-serif; font-size: 10px; fill: #000; opacity: 1;">16</text></g><g class="mark-rule role-axis-domain" style="pointer-events: none;"><line transform="translate(0,0)" x2="400" y2="0" style="fill: none; stroke: #888; stroke-width: 1; opacity: 1;"></line></g><g class="mark-text role-axis-title" style="pointer-events: none;"><text text-anchor="middle" transform="translate(200,30)" style="font-family: sans-serif; font-size: 11px; font-weight: bold; fill: #000; opacity: 1;">value</text></g></g><path class="foreground" d="" style="pointer-events: none; display: none; fill: none;"></path></g></g><g class="mark-group role-axis"><g transform="translate(0.5,0.5)"><path class="background" d="M0,0h0v0h0Z" style="pointer-events: none; fill: none;"></path><g><g class="mark-rule role-axis-tick" style="pointer-events: none;"><line transform="translate(0,100)" x2="-5" y2="0" style="fill: none; stroke: #888; stroke-width: 1; opacity: 1;"></line><line transform="translate(0,56)" x2="-5" y2="0" style="fill: none; stroke: #888; stroke-width: 1; opacity: 1;"></line><line transform="translate(0,11)" x2="-5" y2="0" style="fill: none; stroke: #888; stroke-width: 1; opacity: 1;"></line></g><g class="mark-text role-axis-label" style="pointer-events: none;"><text text-anchor="end" transform="translate(-7,103)" style="font-family: sans-serif; font-size: 10px; fill: #000; opacity: 1;">0</text><text text-anchor="end" transform="translate(-7,58.55555555555556)" style="font-family: sans-serif; font-size: 10px; fill: #000; opacity: 1;">2,000</text><text text-anchor="end" transform="translate(-7,14.111111111111116)" style="font-family: sans-serif; font-size: 10px; fill: #000; opacity: 1;">4,000</text></g><g class="mark-rule role-axis-domain" style="pointer-events: none;"><line transform="translate(0,100)" x2="0" y2="-100" style="fill: none; stroke: #888; stroke-width: 1; opacity: 1;"></line></g><g class="mark-text role-axis-title" style="pointer-events: none;"><text text-anchor="middle" transform="translate(-51,50) rotate(-90) translate(0,-2)" style="font-family: sans-serif; font-size: 11px; font-weight: bold; fill: #000; opacity: 1;">sample-count</text></g></g><path class="foreground" d="" style="pointer-events: none; display: none; fill: none;"></path></g></g><g class="mark-area role-mark layer_0_marks"><path d="M23.943012613073346,99.97777777777777L31.280448086088665,99.95555555555555L38.61788355910398,99.97777777777777L42.28660129561164,99.8888888888889L45.9553190321193,99.6L49.62403676862696,99.46666666666667L53.29275450513461,98.8L56.96147224164228,98.2L60.63018997814993,96.53333333333333L64.29890771465759,94.44444444444444L67.96762545116525,91.5111111111111L71.6363431876729,87.64444444444445L75.30506092418055,81.44444444444444L78.97377866068823,72.93333333333334L82.64249639719587,63.26666666666667L86.31121413370354,53.44444444444445L89.97993187021119,42.51111111111111L93.64864960671885,34.82222222222222L97.31736734322651,23.622222222222224L100.98608507973417,14.57777777777778L104.65480281624183,11.955555555555552L108.32352055274947,10.199999999999998L111.99223828925714,11.511111111111116L115.6609560257648,19.68888888888889L119.32967376227246,29.133333333333333L122.99839149878011,38.13333333333333L126.66710923528777,49.37777777777777L130.33582697179543,61.51111111111112L134.0045447083031,69.82222222222222L137.67326244481075,77.71111111111111L141.3419801813184,84L145.01069791782606,89.77777777777777L148.67941565433372,92.91111111111111L152.34813339084138,95.82222222222222L156.01685112734904,97.62222222222222L159.6855688638567,98.44444444444444L163.35428660036436,99.3111111111111L167.023004336872,99.6888888888889L170.69172207337965,99.71111111111111L178.029157546395,99.97777777777777L181.69787528290266,99.95555555555555L211.04761717496393,99.97777777777777L214.71633491147156,99.97777777777777L218.38505264797922,99.93333333333332L222.05377038448688,99.82222222222222L225.72248812099454,99.73333333333333L229.3912058575022,99.53333333333333L233.05992359400983,99.42222222222222L236.7286413305175,98.28888888888889L240.39735906702515,97.53333333333333L244.06607680353284,95.93333333333334L247.7347945400405,92.75555555555556L251.40351227654816,89.62222222222222L255.07223001305582,83.62222222222222L258.7409477495635,79.08888888888889L262.4096654860711,69.31111111111112L266.0783832225788,58.711111111111116L269.7471009590864,48.95555555555555L273.41581869559406,38.11111111111111L277.08453643210174,28.64444444444444L280.7532541686094,21.22222222222222L284.42197190511706,12.777777777777777L288.09068964162475,10.799999999999999L291.7594073781324,12.73333333333333L295.42812511464007,16.555555555555557L299.09684285114764,23.711111111111116L302.7655605876554,32.111111111111114L306.4342783241631,44.266666666666666L310.10299606067065,53.57777777777778L313.77171379717834,63.888888888888886L317.44043153368597,72.53333333333333L321.10914927019365,81.5111111111111L324.77786700670134,86.44444444444444L328.446584743209,91.5111111111111L332.11530247971666,93.93333333333334L335.78402021622423,96.62222222222222L339.4527379527319,98.15555555555555L343.12145568923967,98.77777777777777L346.79017342574724,99.44444444444444L350.4588911622549,99.75555555555556L354.12760889876256,99.82222222222222L357.79632663527025,99.86666666666667L361.4650443717779,99.95555555555555L365.1337621082855,99.95555555555555L372.4711975813009,99.97777777777777L372.4711975813009,100L365.1337621082855,100L361.4650443717779,100L357.79632663527025,100L354.12760889876256,100L350.4588911622549,100L346.79017342574724,100L343.12145568923967,100L339.4527379527319,100L335.78402021622423,100L332.11530247971666,100L328.446584743209,100L324.77786700670134,100L321.10914927019365,100L317.44043153368597,100L313.77171379717834,100L310.10299606067065,100L306.4342783241631,100L302.7655605876554,100L299.09684285114764,100L295.42812511464007,100L291.7594073781324,100L288.09068964162475,100L284.42197190511706,100L280.7532541686094,100L277.08453643210174,100L273.41581869559406,100L269.7471009590864,100L266.0783832225788,100L262.4096654860711,100L258.7409477495635,100L255.07223001305582,100L251.40351227654816,100L247.7347945400405,100L244.06607680353284,100L240.39735906702515,100L236.7286413305175,100L233.05992359400983,100L229.3912058575022,100L225.72248812099454,100L222.05377038448688,100L218.38505264797922,100L214.71633491147156,100L211.04761717496393,100L181.69787528290266,100L178.029157546395,100L170.69172207337965,100L167.023004336872,100L163.35428660036436,100L159.6855688638567,100L156.01685112734904,100L152.34813339084138,100L148.67941565433372,100L145.01069791782606,100L141.3419801813184,100L137.67326244481075,100L134.0045447083031,100L130.33582697179543,100L126.66710923528777,100L122.99839149878011,100L119.32967376227246,100L115.6609560257648,100L111.99223828925714,100L108.32352055274947,100L104.65480281624183,100L100.98608507973417,100L97.31736734322651,100L93.64864960671885,100L89.97993187021119,100L86.31121413370354,100L82.64249639719587,100L78.97377866068823,100L75.30506092418055,100L71.6363431876729,100L67.96762545116525,100L64.29890771465759,100L60.63018997814993,100L56.96147224164228,100L53.29275450513461,100L49.62403676862696,100L45.9553190321193,100L42.28660129561164,100L38.61788355910398,100L31.280448086088665,100L23.943012613073346,100Z" style="fill: #4c78a8; opacity: 0.7;"></path></g><g class="mark-line role-mark layer_1_marks"><path d="M23.943012613073346,99.97777777777777L31.280448086088665,99.95555555555555L38.61788355910398,99.97777777777777L42.28660129561164,99.8888888888889L45.9553190321193,99.6L49.62403676862696,99.46666666666667L53.29275450513461,98.8L56.96147224164228,98.2L60.63018997814993,96.53333333333333L64.29890771465759,94.44444444444444L67.96762545116525,91.5111111111111L71.6363431876729,87.64444444444445L75.30506092418055,81.44444444444444L78.97377866068823,72.93333333333334L82.64249639719587,63.26666666666667L86.31121413370354,53.44444444444445L89.97993187021119,42.51111111111111L93.64864960671885,34.82222222222222L97.31736734322651,23.622222222222224L100.98608507973417,14.57777777777778L104.65480281624183,11.955555555555552L108.32352055274947,10.199999999999998L111.99223828925714,11.511111111111116L115.6609560257648,19.68888888888889L119.32967376227246,29.133333333333333L122.99839149878011,38.13333333333333L126.66710923528777,49.37777777777777L130.33582697179543,61.51111111111112L134.0045447083031,69.82222222222222L137.67326244481075,77.71111111111111L141.3419801813184,84L145.01069791782606,89.77777777777777L148.67941565433372,92.91111111111111L152.34813339084138,95.82222222222222L156.01685112734904,97.62222222222222L159.6855688638567,98.44444444444444L163.35428660036436,99.3111111111111L167.023004336872,99.6888888888889L170.69172207337965,99.71111111111111L178.029157546395,99.97777777777777L181.69787528290266,99.95555555555555L211.04761717496393,99.97777777777777L214.71633491147156,99.97777777777777L218.38505264797922,99.93333333333332L222.05377038448688,99.82222222222222L225.72248812099454,99.73333333333333L229.3912058575022,99.53333333333333L233.05992359400983,99.42222222222222L236.7286413305175,98.28888888888889L240.39735906702515,97.53333333333333L244.06607680353284,95.93333333333334L247.7347945400405,92.75555555555556L251.40351227654816,89.62222222222222L255.07223001305582,83.62222222222222L258.7409477495635,79.08888888888889L262.4096654860711,69.31111111111112L266.0783832225788,58.711111111111116L269.7471009590864,48.95555555555555L273.41581869559406,38.11111111111111L277.08453643210174,28.64444444444444L280.7532541686094,21.22222222222222L284.42197190511706,12.777777777777777L288.09068964162475,10.799999999999999L291.7594073781324,12.73333333333333L295.42812511464007,16.555555555555557L299.09684285114764,23.711111111111116L302.7655605876554,32.111111111111114L306.4342783241631,44.266666666666666L310.10299606067065,53.57777777777778L313.77171379717834,63.888888888888886L317.44043153368597,72.53333333333333L321.10914927019365,81.5111111111111L324.77786700670134,86.44444444444444L328.446584743209,91.5111111111111L332.11530247971666,93.93333333333334L335.78402021622423,96.62222222222222L339.4527379527319,98.15555555555555L343.12145568923967,98.77777777777777L346.79017342574724,99.44444444444444L350.4588911622549,99.75555555555556L354.12760889876256,99.82222222222222L357.79632663527025,99.86666666666667L361.4650443717779,99.95555555555555L365.1337621082855,99.95555555555555L372.4711975813009,99.97777777777777" style="fill: none; stroke: #4c78a8; stroke-width: 2;"></path></g><g class="mark-group role-title"><g transform="translate(200,-19.5)"><path class="background" d="M0,0h0v0h0Z" style="pointer-events: none; fill: none;"></path><g><g class="mark-text role-title-text" style="pointer-events: none;"><text text-anchor="middle" transform="translate(0,10)" style="font-family: sans-serif; font-size: 13px; font-weight: bold; fill: #000; opacity: 1;">dual-lobe-gaussian</text></g></g><path class="foreground" d="" style="pointer-events: none; display: none; fill: none;"></path></g></g></g><path class="foreground" d="" style="display: none; fill: none;"></path></g></g></g></svg>