<svg class="marks" width="481" height="162" viewBox="0 0 481 162" version="1.1" xmlns="http://www.w3.org/2000/svg" xmlns:xlink="http://www.w3.org/1999/xlink"><rect width="481" height="162" style="fill: white;"></rect><g transform="translate(75,25)"><g class="mark-group role-frame root"><g transform="translate(0,0)"><path class="background" d="M0.5,0.5h400v100h-400Z" style="fill: none; stroke: #ddd;"></path><g><g class="mark-group role-axis"><g transform="translate(0.5,100.5)"><path class="background" d="M0,0h0v0h0Z" style="pointer-events: none; fill: none;"></path><g><g class="mark-rule role-axis-tick" style="pointer-events: none;"><line transform="translate(0,0)" x2="0" y2="5" style="fill: none; stroke: #888; stroke-width: 1; opacity: 1;"></line><line transform="translate(31,0)" x2="0" y2="5" style="fill: none; stroke: #888; stroke-width: 1; opacity: 1;"></line><line transform="translate(62,0)" x2="0" y2="5" style="fill: none; stroke: #888; stroke-width: 1; opacity: 1;"></line><line transform="translate(92,0)" x2="0" y2="5" style="fill: none; stroke: #888; stroke-width: 1; opacity: 1;"></line><line transform="translate(123,0)" x2="0" y2="5" style="fill: none; stroke: #888; stroke-width: 1; opacity: 1;"></line><line transform="translate(154,0)" x2="0" y2="5" style="fill: none; stroke: #888; stroke-width: 1; opacity: 1;"></line><line transform="translate(185,0)" x2="0" y2="5" style="fill: none; stroke: #888; stroke-width: 1; opacity: 1;"></line><line transform="translate(215,0)" x2="0" y2="5" style="fill: none; stroke: #888; stroke-width: 1; opacity: 1;"></line><line transform="translate(246,0)" x2="0" y2="5" style="fill: none; stroke: #888; stroke-width: 1; opacity: 1;"></line><line transform="translate(277,0)" x2="0" y2="5" style="fill: none; stroke: #888; stroke-width: 1; opacity: 1;"></line><line transform="translate(308,0)" x2="0" y2="5" style="fill: none; stroke: #888; stroke-width: 1; opacity: 1;"></line><line transform="translate(338,0)" x2="0" y2="5" style="fill: none; stroke: #888; stroke-width: 1; opacity: 1;"></line><line transform="translate(369,0)" x2="0" y2="5" style="fill: none; stroke: #888; stroke-width: 1; opacity: 1;"></line><line transform="translate(400,0)" x2="0" y2="5" style="fill: none; stroke: #888; stroke-width: 1; opacity: 1;"></line></g><g class="mark-text role-axis-label" style="pointer-events: none;"><text text-anchor="start" transform="translate(0,15)" style="font-family: sans-serif; font-size: 10px; fill: #000; opacity: 1;">0</text><text text-anchor="middle" transform="translate(30.76923076923077,15)" style="font-family: sans-serif; font-size: 10px; fill: #000; opacity: 1;">1</text><text text-anchor="middle" transform="translate(61.53846153846154,15)" style="font-family: sans-serif; font-size: 10px; fill: #000; opacity: 1;">2</text><text text-anchor="middle" transform="translate(92.3076923076923,15)" style="font-family: sans-serif; font-size: 10px; fill: #000; opacity: 1;">3</text><text text-anchor="middle" transform="translate(123.07692307692308,15)" style="font-family: sans-serif; font-size: 10px; fill: #000; opacity: 1;">4</text><text text-anchor="middle" transform="translate(153.84615384615387,15)" style="font-family: sans-serif; font-size: 10px; fill: #000; opacity: 1;">5</text><text text-anchor="middle" transform="translate(184.6153846153846,15)" style="font-family: sans-serif; font-size: 10px; fill: #000; opacity: 1;">6</text><text text-anchor="middle" transform="translate(215.3846153846154,15)" style="font-family: sans-serif; font-size: 10px; fill: #000; opacity: 1;">7</text><text text-anchor="middle" transform="translate(246.15384615384616,15)" style="font-family: sans-serif; font-size: 10px; fill: #000; opacity: 1;">8</text><text text-anchor="middle" transform="translate(276.9230769230769,15)" style="font-family: sans-serif; font-size: 10px; fill: #000; opacity: 1;">9</text><text text-anchor="middle" transform="translate(307.69230769230774,15)" style="font-family: sans-serif; font-size: 10px; fill: #000; opacity: 1;">10</text><text text-anchor="middle" transform="translate(338.46153846153845,15)" style="font-family: sans-serif; font-size: 10px; fill: #000; opacity: 1;">11</text><text text-anchor="middle" transform="translate(369.2307692307692,15)" style="font-family: sans-serif; font-size: 10px; fill: #000; opacity: 1;">12</text><text text-anchor="end" transform="translate(400,15)" style="font-family: sans-serif; font-size: 10px; fill: #000; opacity: 1;">13</text></g><g class="mark-rule role-axis-domain" style="pointer-events: none;"><line transform="translate(0,0)" x2="400" y2="0" style="fill: none; stroke: #888; stroke-width: 1; opacity: 1;"></line></g><g class="mark-text role-axis-title" style="pointer-events: none;"><text text-anchor="middle" transform="translate(200,30)" style="font-family: sans-serif; font-size: 11px; font-weight: bold; fill: #000; opacity: 1;">value</text></g></g><path class="foreground" d="" style="pointer-events: none; display: none; fill: none;"></path></g></g><g class="mark-group role-axis"><g transform="translate(0.5,0.5)"><path class="background" d="M0,0h0v0h0Z" style="pointer-events: none; fill: none;"></path><g><g class="mark-rule role-axis-tick" style="pointer-events: none;"><line transform="translate(0,100)" x2="-5" y2="0" style="fill: none; stroke: #888; stroke-width: 1; opacity: 1;"></line><line transform="translate(0,62)" x2="-5" y2="0" style="fill: none; stroke: #888; stroke-width: 1; opacity: 1;"></line><line transform="translate(0,23)" x2="-5" y2="0" style="fill: none; stroke: #888; stroke-width: 1; opacity: 1;"></line></g><g class="mark-text role-axis-label" style="pointer-events: none;"><text text-anchor="end" transform="translate(-7,103)" style="font-family: sans-serif; font-size: 10px; fill: #000; opacity: 1;">0</text><text text-anchor="end" transform="translate(-7,64.53846153846155)" style="font-family: sans-serif; font-size: 10px; fill: #000; opacity: 1;">5,000</text><text text-anchor="end" transform="translate(-7,26.076923076923073)" style="font-family: sans-serif; font-size: 10px; fill: #000; opacity: 1;">10,000</text></g><g class="mark-rule role-axis-domain" style="pointer-events: none;"><line transform="translate(0,100)" x2="0" y2="-100" style="fill: none; stroke: #888; stroke-width: 1; opacity: 1;"></line></g><g class="mark-text role-axis-title" style="pointer-events: none;"><text text-anchor="middle" transform="translate(-59,50) rotate(-90) translate(0,-2)" style="font-family: sans-serif; font-size: 11px; font-weight: bold; fill: #000; opacity: 1;">sample-count</text></g></g><path class="foreground" d="" style="pointer-events: none; display: none; fill: none;"></path></g></g><g class="mark-area role-mark layer_0_marks"><path d="M0.0003169901404627209,4.538461538461536L4.108572670981385,17.16923076923077L8.216828351822308,26.05384615384615L12.325084032663229,35.02307692307692L16.43333971350415,43.784615384615385L20.541595394345073,49.96153846153846L24.649851075185992,57.084615384615375L28.758106756026912,62.16153846153847L32.86636243686784,66.63846153846154L36.974618117708765,70.43846153846154L41.082873798549684,74.9L45.191129479390604,78.12307692307692L49.29938516023152,80.53846153846153L53.40764084107244,83.26923076923077L57.51589652191337,85.1L61.62415220275429,87.33076923076923L65.73240788359522,88.83076923076923L69.84066356443613,90.00769230769231L73.94891924527707,91.18461538461538L78.057174926118,92.37692307692308L82.1654306069589,92.91538461538461L86.27368628779982,93.8L90.38194196864075,95.03846153846153L94.49019764948167,95.72307692307692L98.59845333032258,96.03076923076924L102.70670901116353,96.62307692307692L106.81496469200444,96.8L110.92322037284536,97.33076923076923L115.03147605368626,97.88461538461539L119.13973173452719,97.84615384615385L123.24798741536813,98.31538461538462L127.35624309620907,98.43076923076923L131.46449877704998,98.6923076923077L135.5727544578909,98.93076923076923L139.6810101387318,98.83846153846154L143.78926581957273,99.03076923076924L147.8975215004137,99.33076923076923L152.0057771812546,99.26153846153845L156.11403286209554,99.37692307692308L160.22228854293644,99.52307692307693L164.33054422377737,99.55384615384615L168.43879990461826,99.59230769230768L172.5470555854592,99.62307692307692L176.65531126630012,99.66923076923077L180.76356694714104,99.73846153846154L184.871822627982,99.76153846153846L188.9800783088229,99.8L193.08833398966382,99.86153846153846L197.19658967050472,99.83846153846154L201.30484535134565,99.93076923076923L205.4131010321866,99.87692307692308L209.5213567130275,99.84615384615385L213.62961239386843,99.92307692307692L217.73786807470935,99.92307692307692L221.84612375555028,99.96153846153845L225.95437943639118,99.97692307692307L230.06263511723208,99.96923076923076L234.17089079807303,99.94615384615385L238.27914647891393,99.94615384615385L242.38740215975488,99.97692307692307L246.49565784059578,99.98461538461538L250.6039135214367,99.96923076923076L258.8204248831185,99.98461538461538L262.92868056395946,99.99230769230769L267.0369362448004,99.99230769230769L275.2534476064822,99.99230769230769L279.36170328732317,99.97692307692307L283.46995896816406,99.99230769230769L291.6864703298459,99.99230769230769L304.01123737236867,99.99230769230769L345.0937941807779,99.97692307692307L349.2020498616188,99.98461538461538L353.31030554245973,99.99230769230769L377.9598396275053,99.99230769230769L377.9598396275053,100L353.31030554245973,100L349.2020498616188,100L345.0937941807779,100L304.01123737236867,100L291.6864703298459,100L283.46995896816406,100L279.36170328732317,100L275.2534476064822,100L267.0369362448004,100L262.92868056395946,100L258.8204248831185,100L250.6039135214367,100L246.49565784059578,100L242.38740215975488,100L238.27914647891393,100L234.17089079807303,100L230.06263511723208,100L225.95437943639118,100L221.84612375555028,100L217.73786807470935,100L213.62961239386843,100L209.5213567130275,100L205.4131010321866,100L201.30484535134565,100L197.19658967050472,100L193.08833398966382,100L188.9800783088229,100L184.871822627982,100L180.76356694714104,100L176.65531126630012,100L172.5470555854592,100L168.43879990461826,100L164.33054422377737,100L160.22228854293644,100L156.11403286209554,100L152.0057771812546,100L147.8975215004137,100L143.78926581957273,100L139.6810101387318,100L135.5727544578909,100L131.46449877704998,100L127.35624309620907,100L123.24798741536813,100L119.13973173452719,100L115.03147605368626,100L110.92322037284536,100L106.81496469200444,100L102.70670901116353,100L98.59845333032258,100L94.49019764948167,100L90.38194196864075,100L86.27368628779982,100L82.1654306069589,100L78.057174926118,100L73.94891924527707,100L69.84066356443613,100L65.73240788359522,100L61.62415220275429,100L57.51589652191337,100L53.40764084107244,100L49.29938516023152,100L45.191129479390604,100L41.082873798549684,100L36.974618117708765,100L32.86636243686784,100L28.758106756026912,100L24.649851075185992,100L20.541595394345073,100L16.43333971350415,100L12.325084032663229,100L8.216828351822308,100L4.108572670981385,100L0.0003169901404627209,100Z" style="fill: #4c78a8; opacity: 0.7;"></path></g><g class="mark-line role-mark layer_1_marks"><path d="M0.0003169901404627209,4.538461538461536L4.108572670981385,17.16923076923077L8.216828351822308,26.05384615384615L12.325084032663229,35.02307692307692L16.43333971350415,43.784615384615385L20.541595394345073,49.96153846153846L24.649851075185992,57.084615384615375L28.758106756026912,62.16153846153847L32.86636243686784,66.63846153846154L36.974618117708765,70.43846153846154L41.082873798549684,74.9L45.191129479390604,78.12307692307692L49.29938516023152,80.53846153846153L53.40764084107244,83.26923076923077L57.51589652191337,85.1L61.62415220275429,87.33076923076923L65.73240788359522,88.83076923076923L69.84066356443613,90.00769230769231L73.94891924527707,91.18461538461538L78.057174926118,92.37692307692308L82.1654306069589,92.91538461538461L86.27368628779982,93.8L90.38194196864075,95.03846153846153L94.49019764948167,95.72307692307692L98.59845333032258,96.03076923076924L102.70670901116353,96.62307692307692L106.81496469200444,96.8L110.92322037284536,97.33076923076923L115.03147605368626,97.88461538461539L119.13973173452719,97.84615384615385L123.24798741536813,98.31538461538462L127.35624309620907,98.43076923076923L131.46449877704998,98.6923076923077L135.5727544578909,98.93076923076923L139.6810101387318,98.83846153846154L143.78926581957273,99.03076923076924L147.8975215004137,99.33076923076923L152.0057771812546,99.26153846153845L156.11403286209554,99.37692307692308L160.22228854293644,99.52307692307693L164.33054422377737,99.55384615384615L168.43879990461826,99.59230769230768L172.5470555854592,99.62307692307692L176.65531126630012,99.66923076923077L180.76356694714104,99.73846153846154L184.871822627982,99.76153846153846L188.9800783088229,99.8L193.08833398966382,99.86153846153846L197.19658967050472,99.83846153846154L201.30484535134565,99.93076923076923L205.4131010321866,99.87692307692308L209.5213567130275,99.84615384615385L213.62961239386843,99.92307692307692L217.73786807470935,99.92307692307692L221.84612375555028,99.96153846153845L225.95437943639118,99.97692307692307L230.06263511723208,99.96923076923076L234.17089079807303,99.94615384615385L238.27914647891393,99.94615384615385L242.38740215975488,99.97692307692307L246.49565784059578,99.98461538461538L250.6039135214367,99.96923076923076L258.8204248831185,99.98461538461538L262.92868056395946,99.99230769230769L267.0369362448004,99.99230769230769L275.2534476064822,99.99230769230769L279.36170328732317,99.97692307692307L283.46995896816406,99.99230769230769L291.6864703298459,99.99230769230769L304.01123737236867,99.99230769230769L345.0937941807779,99.97692307692307L349.2020498616188,99.98461538461538L353.31030554245973,99.99230769230769L377.9598396275053,99.99230769230769" style="fill: none; stroke: #4c78a8; stroke-width: 2;"></path></g><g class="mark-group role-title"><g transform="translate(200,-19.5)"><path class="background" d="M0,0h0v0h0Z" style="pointer-events: none; fill: none;"></path><g><g class="mark-text role-title-text" style="pointer-events: none;"><text text-anchor="middle" transform="translate(0,10)" style="font-family: sans-serif; font-size: 13px; font-weight: bold; fill: #000; opacity: 1;">exponential</text></g></g><path class="foreground" d="" style="pointer-events: none; display: none; fill: none;"></path></g></g></g><path class="foreground" d="" style="display: none; fill: none;"></path></g></g></g></svg>